<svg width="17" height="18" viewBox="0 0 17 18" fill="none" xmlns="http://www.w3.org/2000/svg">
<path fill-rule="evenodd" clip-rule="evenodd" d="M16.6944 15.5946C16.1697 17.2829 14.1138 18.1253 12.645 17.9849C10.639 17.7929 8.45617 16.6662 6.79923 15.4254C4.36367 13.6015 2.08226 10.7804 0.752845 7.78647C-0.186696 5.67095 -0.397498 3.06944 0.999914 1.14111C1.51672 0.428334 2.07659 0.0479476 2.91526 0.00354923C4.08034 -0.0564486 4.24354 0.649126 4.64361 1.74829C4.94168 2.57026 5.33948 3.40903 5.56162 4.261C5.97755 5.85094 4.52348 5.91694 4.33987 7.21649C4.22654 8.03606 5.16381 9.13522 5.58768 9.7196C6.40469 10.8577 7.40535 11.8339 8.54344 12.6031C9.18945 13.0339 10.2299 13.8103 10.9688 13.3819C12.1067 12.7219 12.0001 10.6904 13.5902 11.3779C14.4142 11.7331 15.212 12.2455 15.9986 12.6943C17.2146 13.3867 17.158 14.1042 16.6944 15.5946C17.0412 14.481 16.3476 16.7082 16.6944 15.5946Z" fill="white"/>
</svg>
