<svg width="166" height="36" viewBox="0 0 166 36" fill="none" xmlns="http://www.w3.org/2000/svg">
<path d="M156.789 29.5451V7.24609H165.709V11.5539H161.325V15.8996H165.531V20.0934H161.325V25.1993H166V29.5451H156.789Z" fill="white"/>
<path d="M150.1 29.7474C148.064 29.7474 146.594 29.2406 145.691 28.227C144.795 27.2134 144.348 25.6001 144.348 23.3871V21.2079H148.757V23.9953C148.757 24.5105 148.833 24.916 148.985 25.2116C149.145 25.4988 149.42 25.6424 149.808 25.6424C150.214 25.6424 150.493 25.5241 150.645 25.2876C150.805 25.0511 150.885 24.6626 150.885 24.122C150.885 23.4378 150.818 22.8677 150.683 22.4115C150.547 21.947 150.311 21.5078 149.973 21.0939C149.644 20.6715 149.183 20.1816 148.592 19.6242L146.59 17.7237C145.095 16.3131 144.348 14.6998 144.348 12.8838C144.348 10.9833 144.787 9.53471 145.665 8.53802C146.552 7.54132 147.832 7.04297 149.504 7.04297C151.548 7.04297 152.997 7.58777 153.85 8.67738C154.712 9.767 155.142 11.4225 155.142 13.644H150.607V12.1109C150.607 11.8068 150.518 11.5703 150.341 11.4014C150.172 11.2325 149.939 11.148 149.644 11.148C149.289 11.148 149.027 11.2494 148.858 11.4521C148.698 11.6464 148.617 11.8998 148.617 12.2123C148.617 12.5248 148.702 12.8627 148.871 13.2259C149.04 13.5891 149.373 14.0072 149.872 14.4802L152.444 16.9508C152.959 17.4407 153.432 17.9602 153.863 18.5092C154.294 19.0498 154.64 19.6833 154.902 20.4097C155.164 21.1277 155.294 22.0061 155.294 23.045C155.294 25.1398 154.906 26.7827 154.129 27.9736C153.36 29.1562 152.017 29.7474 150.1 29.7474Z" fill="white"/>
<path d="M132.438 29.5451V7.24609H139.279C140.42 7.24609 141.281 7.50794 141.864 8.03163C142.447 8.54687 142.835 9.27328 143.03 10.2108C143.232 11.14 143.334 12.2338 143.334 13.4924C143.334 14.7087 143.177 15.68 142.865 16.4064C142.561 17.1328 141.982 17.6354 141.129 17.9141C141.83 18.0577 142.32 18.4083 142.599 18.9657C142.886 19.5148 143.03 20.2285 143.03 21.107V29.5451H138.633V20.8155C138.633 20.1652 138.498 19.7639 138.228 19.6119C137.966 19.4514 137.539 19.3712 136.948 19.3712V29.5451H132.438ZM136.973 15.5069H138.05C138.667 15.5069 138.975 14.8354 138.975 13.4924C138.975 12.6224 138.908 12.0522 138.772 11.7819C138.637 11.5116 138.384 11.3765 138.012 11.3765H136.973V15.5069Z" fill="white"/>
<path d="M125.139 29.7474C123.357 29.7474 121.993 29.2111 121.047 28.1383C120.109 27.0572 119.641 25.4988 119.641 23.4632V12.8711C119.641 10.9622 120.105 9.5136 121.034 8.52535C121.972 7.53709 123.34 7.04297 125.139 7.04297C126.938 7.04297 128.303 7.53709 129.232 8.52535C130.169 9.5136 130.638 10.9622 130.638 12.8711V23.4632C130.638 25.4988 130.165 27.0572 129.219 28.1383C128.281 29.2111 126.922 29.7474 125.139 29.7474ZM125.177 25.6424C125.853 25.6424 126.191 24.9878 126.191 23.6785V12.7951C126.191 11.697 125.862 11.148 125.203 11.148C124.459 11.148 124.088 11.7097 124.088 12.8331V23.7039C124.088 24.3965 124.172 24.8948 124.341 25.1989C124.51 25.4946 124.789 25.6424 125.177 25.6424Z" fill="white"/>
<path d="M106.871 29.5451V7.24609H111.306V15.2155H113.409V7.24609H117.843V29.5451H113.409V19.4345H111.306V29.5451H106.871Z" fill="white"/>
<path d="M94.6054 29.5449V7.24585H99.0145V16.1781L101.092 7.24585H105.578L103.082 17.4578L106.097 29.5449H101.472L99.0399 18.7501V29.5449H94.6054Z" fill="white"/>
<path d="M82.2402 29.5451V7.24609H89.082C90.2223 7.24609 91.0838 7.50794 91.6666 8.03163C92.2494 8.54687 92.638 9.27328 92.8323 10.2108C93.035 11.14 93.1363 12.2338 93.1363 13.4924C93.1363 14.7087 92.9801 15.68 92.6676 16.4064C92.3635 17.1328 91.7849 17.6354 90.9318 17.9141C91.6328 18.0577 92.1228 18.4083 92.4015 18.9657C92.6887 19.5148 92.8323 20.2285 92.8323 21.107V29.5451H88.4358V20.8155C88.4358 20.1652 88.3007 19.7639 88.0304 19.6119C87.7685 19.4514 87.342 19.3712 86.7507 19.3712V29.5451H82.2402ZM86.7761 15.5069H87.853C88.4696 15.5069 88.7779 14.8354 88.7779 13.4924C88.7779 12.6224 88.7103 12.0522 88.5752 11.7819C88.44 11.5116 88.1866 11.3765 87.815 11.3765H86.7761V15.5069Z" fill="white"/>
<path d="M74.944 29.7474C73.1618 29.7474 71.7977 29.2111 70.8517 28.1383C69.9141 27.0572 69.4453 25.4988 69.4453 23.4632V12.8711C69.4453 10.9622 69.9099 9.5136 70.839 8.52535C71.7766 7.53709 73.1449 7.04297 74.944 7.04297C76.7432 7.04297 78.1073 7.53709 79.0364 8.52535C79.974 9.5136 80.4428 10.9622 80.4428 12.8711V23.4632C80.4428 25.4988 79.9698 27.0572 79.0238 28.1383C78.0862 29.2111 76.7263 29.7474 74.944 29.7474ZM74.9821 25.6424C75.6578 25.6424 75.9956 24.9878 75.9956 23.6785V12.7951C75.9956 11.697 75.6662 11.148 75.0074 11.148C74.2641 11.148 73.8924 11.7097 73.8924 12.8331V23.7039C73.8924 24.3965 73.9769 24.8948 74.1458 25.1989C74.3148 25.4946 74.5935 25.6424 74.9821 25.6424Z" fill="white"/>
<path d="M52.8966 29.5449L50.502 7.24585H54.8604L56.0894 21.3221L57.3437 7.24585H61.4994L62.6904 21.3221L63.8814 7.24585H68.2905L65.8579 29.5449H60.5112L59.3962 18.8135L58.3319 29.5449H52.8966Z" fill="white"/>
<path d="M164.373 33.1465H164.585V34.9712H165.71V35.1548H164.373V33.1465Z" fill="white" stroke="white" stroke-width="0.4"/>
<path d="M146.647 34.6183H145.528L145.287 35.1548H145.066L145.985 33.1465H146.194L147.112 35.1548H146.888L146.647 34.6183ZM146.57 34.4462L146.088 33.3674L145.606 34.4462H146.57Z" fill="white" stroke="white" stroke-width="0.4"/>
<path d="M127.305 33.3301H126.6V33.1465H128.224V33.3301H127.518V35.1548H127.305V33.3301Z" fill="white" stroke="white" stroke-width="0.4"/>
<path d="M109.119 33.1465H109.331V35.1548H109.119V33.1465Z" fill="white" stroke="white" stroke-width="0.4"/>
<path d="M91.3873 34.1503H91.591V34.9163C91.4972 34.9986 91.3863 35.0617 91.2581 35.1057C91.13 35.1497 90.9951 35.1717 90.8536 35.1717C90.6528 35.1717 90.472 35.1277 90.3114 35.0397C90.1507 34.9517 90.0244 34.8303 89.9326 34.6753C89.8408 34.5185 89.7949 34.3435 89.7949 34.1503C89.7949 33.9571 89.8408 33.7831 89.9326 33.6281C90.0244 33.4713 90.1507 33.3489 90.3114 33.2609C90.472 33.1729 90.6537 33.1289 90.8565 33.1289C91.0095 33.1289 91.1501 33.1538 91.2782 33.2035C91.4064 33.2513 91.5144 33.323 91.6024 33.4187L91.4705 33.5535C91.3117 33.3967 91.1099 33.3183 90.8651 33.3183C90.7025 33.3183 90.5552 33.3546 90.4232 33.4273C90.2932 33.4981 90.1909 33.5975 90.1163 33.7257C90.0417 33.8519 90.0044 33.9935 90.0044 34.1503C90.0044 34.3071 90.0417 34.4487 90.1163 34.5749C90.1909 34.7012 90.2932 34.8006 90.4232 34.8733C90.5533 34.946 90.6996 34.9823 90.8622 34.9823C91.0688 34.9823 91.2438 34.9307 91.3873 34.8274V34.1503Z" fill="white" stroke="white" stroke-width="0.4"/>
<path d="M72.1797 33.1465H72.392V35.1548H72.1797V33.1465Z" fill="white" stroke="white" stroke-width="0.4"/>
<path d="M52.8828 33.1465H53.7005C53.9128 33.1465 54.1003 33.1895 54.2628 33.2756C54.4254 33.3598 54.5517 33.4783 54.6416 33.6314C54.7314 33.7825 54.7764 33.9556 54.7764 34.1507C54.7764 34.3458 54.7314 34.5198 54.6416 34.6728C54.5517 34.8239 54.4254 34.9425 54.2628 35.0286C54.1003 35.1128 53.9128 35.1548 53.7005 35.1548H52.8828V33.1465ZM53.689 34.9712C53.865 34.9712 54.019 34.9368 54.1509 34.8679C54.2829 34.7972 54.3852 34.7006 54.4579 34.5781C54.5306 34.4538 54.567 34.3113 54.567 34.1507C54.567 33.99 54.5306 33.8484 54.4579 33.726C54.3852 33.6017 54.2829 33.5051 54.1509 33.4363C54.019 33.3655 53.865 33.3301 53.689 33.3301H53.0951V34.9712H53.689Z" fill="white" stroke="white" stroke-width="0.4"/>
<path fill-rule="evenodd" clip-rule="evenodd" d="M30.398 0.0429688H27.525L23.8361 4.00269C23.8218 4.00248 23.8069 4.00229 23.7915 4.00212C23.601 4.00001 23.3247 4.00107 22.9755 4.0134C22.2771 4.03805 21.2855 4.10778 20.1019 4.28776C17.7372 4.64738 14.5919 5.44938 11.4897 7.22325C8.38235 9.00005 5.32573 11.7481 3.14701 15.9823C0.969933 20.2133 -0.316296 25.9003 0.0673332 33.5371L0.0927315 34.0427L1.14563 33.9939L1.12023 33.4883C0.743259 25.984 2.01073 20.4757 4.09203 16.4308C6.1717 12.3891 9.07815 9.78042 12.029 8.09315C14.9849 6.40295 17.9928 5.6335 20.2668 5.2877C21.4026 5.11497 22.3516 5.04849 23.0142 5.02511C23.3453 5.01342 23.6046 5.01251 23.7794 5.01444C23.8668 5.01541 23.9331 5.01708 23.9766 5.01847C23.9984 5.01917 24.0145 5.01979 24.0247 5.02022L24.0357 5.0207L24.0376 5.02079L24.038 5.02081L24.29 5.03376L27.9963 1.05536H29.0352L27.7454 5.82637L32.2342 12.6993V17.1163L38.8677 28.7764L37.6169 32.9809L31.2903 32.5948L31.4097 29.1096L31.1296 28.9592L30.8723 29.401C31.1296 28.9592 31.1296 28.9592 31.1296 28.9592L31.1291 28.959L31.1249 28.9567L31.1126 28.9501C31.1019 28.9444 31.0862 28.9361 31.0656 28.9252C31.0246 28.9036 30.9645 28.872 30.887 28.8318C30.732 28.7514 30.5074 28.6364 30.2273 28.4973C29.6674 28.2191 28.8841 27.8436 27.9901 27.4537C26.3131 26.7224 24.1953 25.9177 22.4262 25.6367L18.4366 16.8439L19.9501 14.4325L19.0473 13.9099L17.2528 16.769L21.6953 26.5602L21.9904 26.5977C23.6487 26.8087 25.7908 27.6065 27.5543 28.3755C28.4281 28.7566 29.1948 29.1242 29.743 29.3965C29.9873 29.5179 30.1879 29.6201 30.3349 29.6961L30.2031 33.5429L38.3972 34.043L40 28.6553L33.2883 16.8578V12.408L28.8799 5.65824L30.398 0.0429688Z" fill="white"/>
<path fill-rule="evenodd" clip-rule="evenodd" d="M14.917 20.043L22 33.7371L21.083 34.043L14 20.3489L14.917 20.043Z" fill="white"/>
</svg>
