<svg width="24" height="25" viewBox="0 0 24 25" fill="none" xmlns="http://www.w3.org/2000/svg">
<path d="M19 3.04297C19.5304 3.04297 20.0391 3.25368 20.4142 3.62876C20.7893 4.00383 21 4.51254 21 5.04297V19.043C21 19.5734 20.7893 20.0821 20.4142 20.4572C20.0391 20.8323 19.5304 21.043 19 21.043H5C4.46957 21.043 3.96086 20.8323 3.58579 20.4572C3.21071 20.0821 3 19.5734 3 19.043V5.04297C3 4.51254 3.21071 4.00383 3.58579 3.62876C3.96086 3.25368 4.46957 3.04297 5 3.04297H19ZM18.5 18.543V13.243C18.5 12.3784 18.1565 11.5492 17.5452 10.9378C16.9338 10.3264 16.1046 9.98297 15.24 9.98297C14.39 9.98297 13.4 10.503 12.92 11.283V10.173H10.13V18.543H12.92V13.613C12.92 12.843 13.54 12.213 14.31 12.213C14.6813 12.213 15.0374 12.3605 15.2999 12.623C15.5625 12.8856 15.71 13.2417 15.71 13.613V18.543H18.5ZM6.88 8.60297C7.32556 8.60297 7.75288 8.42597 8.06794 8.11091C8.383 7.79585 8.56 7.36853 8.56 6.92297C8.56 5.99297 7.81 5.23297 6.88 5.23297C6.43178 5.23297 6.00193 5.41102 5.68499 5.72796C5.36805 6.04489 5.19 6.47475 5.19 6.92297C5.19 7.85297 5.95 8.60297 6.88 8.60297ZM8.27 18.543V10.173H5.5V18.543H8.27Z" fill="white"/>
</svg>
