<svg width="24" height="25" viewBox="0 0 24 25" fill="none" xmlns="http://www.w3.org/2000/svg">
<path d="M13.0286 2.0442C13.7583 2.0414 14.488 2.04873 15.2176 2.0662L15.4116 2.0732C15.6356 2.0812 15.8566 2.0912 16.1236 2.1032C17.1876 2.1532 17.9136 2.3212 18.5506 2.5682C19.2106 2.8222 19.7666 3.1662 20.3226 3.7222C20.831 4.22181 21.2244 4.82615 21.4756 5.4932C21.7226 6.1302 21.8906 6.8572 21.9406 7.9212C21.9526 8.1872 21.9626 8.4092 21.9706 8.6332L21.9766 8.8272C21.9943 9.55639 22.002 10.2858 21.9996 11.0152L22.0006 11.7612V13.0712C22.003 13.8009 21.9954 14.5307 21.9776 15.2602L21.9716 15.4542C21.9636 15.6782 21.9536 15.8992 21.9416 16.1662C21.8916 17.2302 21.7216 17.9562 21.4756 18.5932C21.2252 19.261 20.8317 19.8658 20.3226 20.3652C19.8225 20.8735 19.2179 21.267 18.5506 21.5182C17.9136 21.7652 17.1876 21.9332 16.1236 21.9832C15.8566 21.9952 15.6356 22.0052 15.4116 22.0132L15.2176 22.0192C14.4881 22.037 13.7583 22.0446 13.0286 22.0422L12.2826 22.0432H10.9736C10.2438 22.0457 9.5141 22.038 8.78458 22.0202L8.59058 22.0142C8.35319 22.0056 8.11585 21.9956 7.87858 21.9842C6.81458 21.9342 6.08858 21.7642 5.45058 21.5182C4.78326 21.2675 4.17881 20.874 3.67958 20.3652C3.17062 19.8655 2.7768 19.2608 2.52558 18.5932C2.27858 17.9562 2.11058 17.2302 2.06058 16.1662C2.04944 15.9289 2.03944 15.6916 2.03058 15.4542L2.02558 15.2602C2.00714 14.5307 1.99881 13.8009 2.00058 13.0712V11.0152C1.99779 10.2858 2.00512 9.5564 2.02258 8.8272L2.02958 8.6332C2.03758 8.4092 2.04758 8.1872 2.05958 7.9212C2.10958 6.8562 2.27758 6.1312 2.52458 5.4932C2.77595 4.82582 3.17054 4.22164 3.68058 3.7232C4.17947 3.21395 4.78354 2.81977 5.45058 2.5682C6.08858 2.3212 6.81358 2.1532 7.87858 2.1032L8.59058 2.0732L8.78458 2.0682C9.51376 2.04977 10.2432 2.04144 10.9726 2.0432L13.0286 2.0442ZM12.0006 7.0442C11.3381 7.03483 10.6803 7.15722 10.0656 7.40427C9.45077 7.65131 8.89122 8.01808 8.41942 8.48325C7.94762 8.94843 7.57298 9.50274 7.31726 10.114C7.06155 10.7252 6.92987 11.3811 6.92987 12.0437C6.92987 12.7063 7.06155 13.3622 7.31726 13.9734C7.57298 14.5847 7.94762 15.139 8.41942 15.6041C8.89122 16.0693 9.45077 16.4361 10.0656 16.6831C10.6803 16.9302 11.3381 17.0526 12.0006 17.0432C13.3267 17.0432 14.5984 16.5164 15.5361 15.5787C16.4738 14.6411 17.0006 13.3693 17.0006 12.0432C17.0006 10.7171 16.4738 9.44535 15.5361 8.50767C14.5984 7.56998 13.3267 7.0442 12.0006 7.0442ZM12.0006 9.0442C12.3991 9.03686 12.7951 9.109 13.1654 9.25641C13.5357 9.40382 13.8729 9.62354 14.1574 9.90274C14.4418 10.1819 14.6678 10.515 14.822 10.8825C14.9763 11.25 15.0558 11.6446 15.0558 12.0432C15.0559 12.4418 14.9766 12.8364 14.8224 13.2039C14.6683 13.5715 14.4424 13.9046 14.1581 14.1839C13.8737 14.4632 13.5366 14.6831 13.1663 14.8306C12.796 14.9781 12.4001 15.0504 12.0016 15.0432C11.2059 15.0432 10.4429 14.7271 9.88026 14.1645C9.31765 13.6019 9.00158 12.8388 9.00158 12.0432C9.00158 11.2476 9.31765 10.4845 9.88026 9.92188C10.4429 9.35927 11.2059 9.0432 12.0016 9.0432L12.0006 9.0442ZM17.2506 5.5442C16.928 5.55711 16.6229 5.69435 16.3992 5.92717C16.1755 6.15999 16.0506 6.47033 16.0506 6.7932C16.0506 7.11606 16.1755 7.42641 16.3992 7.65923C16.6229 7.89205 16.928 8.02929 17.2506 8.0422C17.5821 8.0422 17.9 7.9105 18.1345 7.67608C18.3689 7.44166 18.5006 7.12372 18.5006 6.7922C18.5006 6.46068 18.3689 6.14274 18.1345 5.90832C17.9 5.6739 17.5821 5.5422 17.2506 5.5422V5.5442Z" fill="white"/>
</svg>
