<svg width="116" height="119" viewBox="0 0 116 119" fill="none" xmlns="http://www.w3.org/2000/svg">
<path fill-rule="evenodd" clip-rule="evenodd" d="M72.9795 0H81.2092L77.3692 14.7761L88.0101 31.7249V42.9796L104.348 72.8552L100.218 87.2987L79.0547 85.955L79.3826 75.9942C79.091 75.8393 78.7451 75.6576 78.3522 75.4546C77.0301 74.7714 75.1811 73.8492 73.0749 72.8937C68.802 70.9553 63.6886 68.9822 59.7794 68.4648L58.6584 68.3165L47.567 42.8866L52.4875 34.7312L55.9173 36.7968L52.0646 43.1826L61.4395 64.6768C65.7515 65.4573 70.7774 67.4571 74.7306 69.2505C76.9135 70.2407 78.8255 71.1944 80.1921 71.9006C80.8759 72.254 81.4247 72.5462 81.8041 72.7509C81.9939 72.8533 82.1414 72.9339 82.2424 72.9895C82.2929 73.0172 82.3318 73.0387 82.3586 73.0535L82.3981 73.0755L82.4006 73.0769C82.4006 73.0769 82.4019 73.0776 81.4246 74.8238L82.4006 73.0769L83.466 73.6721L83.185 82.208L97.2532 83.1012L100.046 73.3337L84.0053 44.0014V32.8759L73.0589 15.4406L76.0318 4.00124H74.7701L65.7619 14.0604L64.8029 14.0091L64.7789 14.008C64.7566 14.007 64.72 14.0056 64.6697 14.0039C64.569 14.0005 64.4135 13.9964 64.2068 13.9941C63.7935 13.9893 63.1761 13.9915 62.3851 14.0206C60.802 14.0787 58.5287 14.2441 55.8057 14.6749C50.3508 15.5379 43.1468 17.4568 36.0754 21.6631C29.0233 25.858 22.0745 32.3428 17.0967 42.4069C12.1126 52.4834 9.05018 66.2589 9.96026 85.1054L10.212 88.1466H6.18927L5.9601 85.2982C5.02474 65.9281 8.15836 51.4464 13.5063 40.6342C18.8605 29.8094 26.3798 22.7737 34.0266 18.2251C41.654 13.688 49.3795 11.6405 55.1794 10.7229C58.0837 10.2634 60.5191 10.0851 62.238 10.022C62.9721 9.99506 63.5765 9.98909 64.0321 9.9913L72.9795 0ZM45.2964 49.2143L61.4341 88.1466H57.1433L41.598 50.7492L45.2964 49.2143Z" fill="white"/>
<path d="M15.975 93.7821H19.6948L15.975 105.398H11.7737L9.89722 99.192L7.9211 105.398H3.71976L0 93.7821H4.03528L6.06122 100.387L8.2034 93.7821H11.8069L13.8329 100.47L15.975 93.7821Z" fill="white"/>
<path d="M25.9829 105.664C22.1967 105.664 19.4235 103.108 19.4235 99.5902C19.4235 96.0722 22.1967 93.5166 25.9829 93.5166C29.7691 93.5166 32.5423 96.0722 32.5423 99.5902C32.5423 103.108 29.7691 105.664 25.9829 105.664ZM25.9829 102.494C27.4277 102.494 28.5901 101.399 28.5901 99.5902C28.5901 97.7814 27.4277 96.6862 25.9829 96.6862C24.5382 96.6862 23.3758 97.7814 23.3758 99.5902C23.3758 101.399 24.5382 102.494 25.9829 102.494Z" fill="white"/>
<path d="M40.4245 105.398L38.4484 102.478H37.3856V105.398H33.4666V93.7821H39.0628C42.301 93.7821 44.3601 95.4748 44.3601 98.1631C44.3601 99.8392 43.563 101.1 42.1681 101.814L44.6092 105.398H40.4245ZM40.4079 98.1631C40.4079 97.3168 39.8931 96.8023 38.8137 96.8023H37.3856V99.5239H38.8137C39.8931 99.5239 40.4079 99.0094 40.4079 98.1631Z" fill="white"/>
<path d="M52.9806 105.398L50.0746 101.548L49.1944 102.528V105.398H45.3418V93.7821H49.1944V97.9972L53.0138 93.7821H57.2816L52.6319 98.8933L57.5141 105.398H52.9806Z" fill="white"/>
<path d="M65.0806 93.7821H68.9997V105.398H65.0806V101.117H61.4605V105.398H57.5415V93.7821H61.4605V97.8976H65.0806V93.7821Z" fill="white"/>
<path d="M76.4842 105.664C72.698 105.664 69.9248 103.108 69.9248 99.5902C69.9248 96.0722 72.698 93.5166 76.4842 93.5166C80.2704 93.5166 83.0436 96.0722 83.0436 99.5902C83.0436 103.108 80.2704 105.664 76.4842 105.664ZM76.4842 102.494C77.9289 102.494 79.0914 101.399 79.0914 99.5902C79.0914 97.7814 77.9289 96.6862 76.4842 96.6862C75.0395 96.6862 73.877 97.7814 73.877 99.5902C73.877 101.399 75.0395 102.494 76.4842 102.494Z" fill="white"/>
<path d="M90.9258 105.398L88.9496 102.478H87.8869V105.398H83.9678V93.7821H89.5641C92.8023 93.7821 94.8614 95.4748 94.8614 98.1631C94.8614 99.8392 94.0643 101.1 92.6694 101.814L95.1105 105.398H90.9258ZM90.9092 98.1631C90.9092 97.3168 90.3944 96.8023 89.315 96.8023H87.8869V99.5239H89.315C90.3944 99.5239 90.9092 99.0094 90.9092 98.1631Z" fill="white"/>
<path d="M100.177 105.664C98.2344 105.664 96.2749 105.183 95.1124 104.469L96.3745 101.615C97.4705 102.262 98.9318 102.677 100.211 102.677C101.323 102.677 101.722 102.445 101.722 102.046C101.722 100.586 95.2951 101.764 95.2951 97.4329C95.2951 95.2756 97.1052 93.5166 100.709 93.5166C102.27 93.5166 103.88 93.8485 105.093 94.5289L103.914 97.3666C102.768 96.7857 101.688 96.5036 100.675 96.5036C99.5297 96.5036 99.1643 96.8355 99.1643 97.2338C99.1643 98.6278 105.591 97.4661 105.591 101.748C105.591 103.872 103.781 105.664 100.177 105.664Z" fill="white"/>
<path d="M110.111 102.445H115.924V105.398H106.259V93.7821H115.708V96.736H110.111V98.0967H115.027V100.918H110.111V102.445Z" fill="white"/>
<path d="M1.08496 118.905V110.57H4.59975C7.28052 110.57 9.10344 112.261 9.10344 114.738C9.10344 117.214 7.28052 118.905 4.59975 118.905H1.08496ZM2.27642 117.869H4.52826C6.58948 117.869 7.91199 116.607 7.91199 114.738C7.91199 112.868 6.58948 111.606 4.52826 111.606H2.27642V117.869Z" fill="white"/>
<path d="M22.1757 118.905V110.57H23.3672V118.905H22.1757Z" fill="white"/>
<path d="M42.89 117.405V114.69H44.0338V117.94C43.1997 118.643 42.044 119 40.8764 119C38.3148 119 36.4323 117.202 36.4323 114.738C36.4323 112.273 38.3148 110.475 40.9002 110.475C42.2227 110.475 43.3427 110.916 44.1052 111.761L43.3665 112.499C42.6755 111.832 41.8891 111.535 40.9479 111.535C39.0177 111.535 37.6237 112.88 37.6237 114.738C37.6237 116.571 39.0177 117.94 40.936 117.94C41.6389 117.94 42.2942 117.786 42.89 117.405Z" fill="white"/>
<path d="M57.5622 118.905V110.57H58.7537V118.905H57.5622Z" fill="white"/>
<path d="M74.154 118.905V111.606H71.2946V110.57H78.1931V111.606H75.3336V118.905H74.154Z" fill="white"/>
<path d="M96.5505 118.905L95.633 116.821H91.2008L90.2834 118.905H89.0562L92.8331 110.57H94.0127L97.8015 118.905H96.5505ZM91.6179 115.869H95.216L93.4169 111.785L91.6179 115.869Z" fill="white"/>
<path d="M110.293 118.905V110.57H111.484V117.869H116V118.905H110.293Z" fill="white"/>
</svg>
